<svg width="9" height="9" viewBox="0 0 9 9" fill="none" xmlns="http://www.w3.org/2000/svg">
<path d="M6.84313 8.71875C6.06803 8.71805 5.30498 8.52649 4.62147 8.16099L4.41055 8.04382C2.95322 7.26028 1.75847 6.06551 0.974935 4.60821L0.857758 4.3973C0.482709 3.70989 0.284592 2.93994 0.28125 2.15688V1.84285C0.281053 1.59301 0.380597 1.35343 0.557787 1.17729L1.3499 0.385177C1.42683 0.307653 1.53542 0.270288 1.64376 0.284059C1.7521 0.297829 1.84789 0.361179 1.90297 0.455483L2.95756 2.26468C3.0642 2.44883 3.03341 2.68172 2.88257 2.83181L1.99671 3.71767C1.92315 3.79042 1.906 3.90281 1.95453 3.99421L2.11858 4.30355C2.70776 5.39489 3.60405 6.28955 4.69646 6.87674L5.0058 7.04548C5.0972 7.09399 5.2096 7.07683 5.28234 7.00329L6.16819 6.11744C6.31827 5.96661 6.55117 5.93582 6.73533 6.04245L8.54453 7.09703C8.63883 7.15211 8.7022 7.24791 8.71594 7.35623C8.72972 7.46459 8.69236 7.57319 8.61484 7.6501L7.82272 8.44221C7.64658 8.61938 7.40698 8.71894 7.15716 8.71875H6.84313Z" fill="white"/>
</svg>
