<svg width="32" height="32" viewBox="0 0 32 32" fill="none" xmlns="http://www.w3.org/2000/svg">
<path d="M20.9987 25C19.3451 24.9985 17.7173 24.5898 16.2591 23.8101L15.8092 23.5601C12.7002 21.8886 10.1514 19.3398 8.47986 16.2309L8.22988 15.7809C7.42978 14.3144 7.00713 12.6719 7 11.0013V10.3314C6.99958 9.79842 7.21194 9.28731 7.58994 8.91155L9.27979 7.22171C9.4439 7.05633 9.67556 6.97661 9.90669 7.00599C10.1378 7.03537 10.3422 7.17052 10.4597 7.3717L12.7095 11.2313C12.937 11.6242 12.8713 12.121 12.5495 12.4412L10.6597 14.331C10.5027 14.4862 10.4661 14.726 10.5697 14.921L10.9196 15.5809C12.1766 17.9091 14.0886 19.8177 16.4191 21.0704L17.079 21.4303C17.274 21.5338 17.5138 21.4972 17.669 21.3404L19.5588 19.4505C19.879 19.1288 20.3758 19.0631 20.7687 19.2906L24.6283 21.5403C24.8295 21.6578 24.9647 21.8622 24.994 22.0933C25.0234 22.3245 24.9437 22.5561 24.7783 22.7202L23.0885 24.4101C22.7127 24.788 22.2016 25.0004 21.6686 25H20.9987Z" fill="#686868"/>
</svg>
