<svg width="19" height="20" viewBox="0 0 19 20" fill="none" xmlns="http://www.w3.org/2000/svg">
<path d="M17.0684 9.00122L15.9918 7.75039C15.7859 7.51289 15.6197 7.06956 15.6197 6.75289V5.40706C15.6197 4.56789 14.9309 3.87914 14.0918 3.87914H12.7459C12.4372 3.87914 11.9859 3.71289 11.7484 3.50706L10.4976 2.43039C9.95136 1.96331 9.05678 1.96331 8.50261 2.43039L7.25969 3.51497C7.02219 3.71289 6.57094 3.87914 6.26219 3.87914H4.89261C4.05344 3.87914 3.36469 4.56789 3.36469 5.40706V6.76081C3.36469 7.06956 3.19844 7.51289 3.00053 7.75039L1.93178 9.00914C1.47261 9.55539 1.47261 10.4421 1.93178 10.9883L3.00053 12.2471C3.19844 12.4846 3.36469 12.9279 3.36469 13.2366V14.5904C3.36469 15.4296 4.05344 16.1183 4.89261 16.1183H6.26219C6.57094 16.1183 7.02219 16.2846 7.25969 16.4904L8.51053 17.5671C9.05678 18.0341 9.95136 18.0341 10.5055 17.5671L11.7564 16.4904C11.9939 16.2846 12.4372 16.1183 12.7539 16.1183H14.0997C14.9389 16.1183 15.6276 15.4296 15.6276 14.5904V13.2446C15.6276 12.9358 15.7939 12.4846 15.9997 12.2471L17.0764 10.9962C17.5355 10.45 17.5355 9.54747 17.0684 9.00122ZM12.7934 8.50247L8.96969 12.3262C8.85837 12.4374 8.70746 12.4999 8.55011 12.4999C8.39277 12.4999 8.24186 12.4374 8.13053 12.3262L6.21469 10.4104C5.98511 10.1808 5.98511 9.80081 6.21469 9.57122C6.44428 9.34164 6.82428 9.34164 7.05386 9.57122L8.55011 11.0675L11.9543 7.66331C12.1839 7.43372 12.5639 7.43372 12.7934 7.66331C13.023 7.89289 13.023 8.27289 12.7934 8.50247Z" fill="#565656"/>
</svg>
