<svg width="31" height="30" viewBox="0 0 31 30" fill="none" xmlns="http://www.w3.org/2000/svg">
<path d="M9.18421 22C9.04899 22 8.9168 21.9599 8.80436 21.8848C8.69192 21.8097 8.60428 21.703 8.55253 21.578C8.50078 21.4531 8.48724 21.3156 8.51363 21.183C8.54002 21.0504 8.60514 20.9286 8.70077 20.833L21.3335 8.20025C21.4617 8.07203 21.6356 8 21.8169 8C21.9983 8 22.1722 8.07203 22.3004 8.20025C22.4286 8.32846 22.5006 8.50236 22.5006 8.68368C22.5006 8.865 22.4286 9.0389 22.3004 9.16711L9.66764 21.7998C9.60421 21.8634 9.52885 21.9138 9.44589 21.9482C9.36293 21.9825 9.274 22.0001 9.18421 22Z" fill="black"/>
<path d="M21.8169 22C21.7271 22.0001 21.6382 21.9825 21.5552 21.9482C21.4723 21.9138 21.3969 21.8634 21.3335 21.7998L8.70073 9.16711C8.57252 9.0389 8.50049 8.865 8.50049 8.68368C8.50049 8.50236 8.57252 8.32846 8.70073 8.20025C8.82895 8.07203 9.00284 8 9.18417 8C9.36549 8 9.53939 8.07203 9.6676 8.20025L22.3003 20.833C22.396 20.9286 22.4611 21.0504 22.4875 21.183C22.5139 21.3156 22.5003 21.4531 22.4486 21.578C22.3968 21.703 22.3092 21.8097 22.1967 21.8848C22.0843 21.9599 21.9521 22 21.8169 22Z" fill="black"/>
</svg>
