<svg width="16" height="16" viewBox="0 0 16 16" fill="none" xmlns="http://www.w3.org/2000/svg">
<path d="M4.67487 11.5C4.60726 11.5 4.54116 11.48 4.48494 11.4424C4.42872 11.4049 4.3849 11.3515 4.35903 11.289C4.33315 11.2266 4.32639 11.1578 4.33958 11.0915C4.35277 11.0252 4.38534 10.9643 4.43315 10.9165L10.7495 4.60012C10.8136 4.53602 10.9006 4.5 10.9912 4.5C11.0819 4.5 11.1688 4.53602 11.2329 4.60012C11.2971 4.66423 11.3331 4.75118 11.3331 4.84184C11.3331 4.9325 11.2971 5.01945 11.2329 5.08356L4.91658 11.3999C4.88487 11.4317 4.84719 11.4569 4.80571 11.4741C4.76423 11.4913 4.71976 11.5001 4.67487 11.5Z" fill="#D62626"/>
<path d="M10.9912 11.5C10.9463 11.5001 10.9019 11.4913 10.8604 11.4741C10.8189 11.4569 10.7812 11.4317 10.7495 11.3999L4.43313 5.08356C4.36902 5.01945 4.33301 4.9325 4.33301 4.84184C4.33301 4.75118 4.36902 4.66423 4.43313 4.60012C4.49724 4.53602 4.58419 4.5 4.67485 4.5C4.76551 4.5 4.85246 4.53602 4.91656 4.60012L11.2329 10.9165C11.2807 10.9643 11.3133 11.0252 11.3265 11.0915C11.3397 11.1578 11.3329 11.2266 11.3071 11.289C11.2812 11.3515 11.2374 11.4049 11.1811 11.4424C11.1249 11.48 11.0588 11.5 10.9912 11.5Z" fill="#D62626"/>
</svg>
