<svg width="27" height="26" viewBox="0 0 27 26" fill="none" xmlns="http://www.w3.org/2000/svg">
<path d="M25.3427 11.1084V12.578C25.3427 13.0173 25.072 13.39 24.6546 13.5266L23.6095 13.8648C23.284 13.9714 23.0539 14.2116 22.959 14.5397C22.7518 15.274 22.4593 15.9717 22.0952 16.6243C21.9281 16.9239 21.9225 17.256 22.0779 17.5612L22.5776 18.5402C22.7762 18.9318 22.7046 19.3883 22.3933 19.6975L21.3538 20.737C21.043 21.0478 20.588 21.1199 20.1965 20.9214L19.2174 20.4217C18.9122 20.2663 18.5796 20.2734 18.2805 20.4389C18.1713 20.5009 18.0601 20.5598 17.9494 20.6162C18.0977 20.0647 18.3699 19.5625 18.7716 19.0902C19.3459 18.4179 19.968 17.7831 20.4961 17.0721C21.564 15.6371 21.9713 14.1934 21.9713 12.4069C21.9713 7.7284 18.1784 3.93402 13.4984 3.93402C8.81996 3.93402 5.02559 7.7284 5.02559 12.4069C5.02559 14.1934 5.43438 15.6371 6.50078 17.0721C7.02891 17.7831 7.65098 18.4179 8.22531 19.0902C8.62852 19.5625 8.9002 20.0647 9.04848 20.6162C8.93663 20.5599 8.82623 20.5008 8.71738 20.4389C8.41777 20.2734 8.08414 20.2663 7.77895 20.4217L6.79988 20.9214C6.40988 21.1199 5.95336 21.0478 5.6441 20.737L4.6041 19.698C4.29484 19.3888 4.22273 18.9323 4.42129 18.5407L4.92098 17.5617C5.07637 17.2565 5.06926 16.9239 4.90219 16.6248C4.53527 15.9653 4.24544 15.2659 4.0384 14.5402C3.94496 14.2106 3.71289 13.9714 3.38789 13.8653L2.34434 13.5271C1.92691 13.3905 1.65625 13.0178 1.65625 12.5785V11.1089C1.65625 10.6696 1.92691 10.2969 2.34434 10.1603L3.38789 9.82211C3.7134 9.71547 3.94496 9.47527 4.0384 9.14723C4.24503 8.4214 4.53488 7.7219 4.90219 7.06266C5.06926 6.76305 5.07637 6.43094 4.92098 6.12574L4.42129 5.14668C4.22273 4.75516 4.29434 4.29863 4.6041 3.98937L5.64461 2.94988C5.95387 2.6391 6.41039 2.56699 6.80039 2.76555L7.77945 3.26523C8.08465 3.42063 8.41879 3.41352 8.71789 3.24797C9.3767 2.87976 10.0761 2.58937 10.802 2.38266C11.13 2.28922 11.3707 2.05715 11.4768 1.73215L11.815 0.688594C11.9527 0.270664 12.3254 0 12.7646 0H14.2343C14.6735 0 15.0462 0.270664 15.1813 0.688086L15.5211 1.73164C15.6262 2.05715 15.8664 2.28871 16.1959 2.38215C16.9287 2.59086 17.628 2.88285 18.28 3.24746C18.5796 3.41301 18.9117 3.42012 19.2169 3.26473L20.196 2.76504C20.5875 2.56648 21.0425 2.63859 21.3533 2.94938L22.3928 3.98887C22.7036 4.29813 22.7757 4.75465 22.5771 5.14617L22.0774 6.12523C21.922 6.43043 21.9276 6.76305 22.0947 7.06215C22.4627 7.72122 22.7531 8.42075 22.96 9.14672C23.0534 9.47629 23.284 9.71547 23.6105 9.8216L24.6541 10.1598C25.072 10.2969 25.3427 10.6696 25.3427 11.1084ZM14.0428 13.2849C14.0428 13.1351 13.9824 12.9985 13.8844 12.9005C13.8338 12.8496 13.7737 12.8092 13.7075 12.7818C13.6412 12.7543 13.5702 12.7403 13.4984 12.7405C13.3486 12.7405 13.212 12.8009 13.114 12.9005C13.0118 13.0023 12.9543 13.1406 12.9541 13.2849C12.9541 13.4362 13.016 13.5713 13.114 13.6708C13.212 13.7688 13.3486 13.8293 13.4984 13.8293C13.6498 13.8293 13.7848 13.7688 13.8844 13.6708C13.9824 13.5713 14.0428 13.4362 14.0428 13.2849ZM21.1334 12.4069C21.1334 8.19051 17.7148 4.77344 13.4989 4.77344C9.28258 4.77344 5.86551 8.19051 5.86551 12.4069C5.86551 15.6229 7.35695 16.7802 8.86363 18.5463C9.24957 18.9983 9.5375 19.4807 9.72996 19.9956H11.3626V17.5703H10.3921C10.1606 17.5703 9.9732 17.3829 9.9732 17.1514V15.8143C9.75992 15.7468 9.56848 15.6284 9.41461 15.473C9.16426 15.2227 9.00887 14.8769 9.00887 14.4955C9.00887 14.1141 9.16426 13.7688 9.41461 13.518C9.66496 13.2676 10.0108 13.1122 10.3921 13.1122C10.7735 13.1122 11.1188 13.2676 11.3697 13.518C11.62 13.7683 11.7754 14.1141 11.7754 14.4955C11.7754 14.8769 11.62 15.2222 11.3697 15.473C11.2158 15.6284 11.0244 15.7468 10.8111 15.8143V16.7314H11.7825C12.0131 16.7314 12.2015 16.9198 12.2015 17.1519V19.9961H13.0795V14.6037C12.8662 14.5361 12.6748 14.4178 12.5209 14.2624C12.2705 14.0136 12.1167 13.6662 12.1167 13.2849C12.1167 12.9035 12.2705 12.5582 12.5209 12.3073C12.6491 12.1788 12.8015 12.0769 12.9693 12.0074C13.137 11.938 13.3169 11.9024 13.4984 11.9026C13.8813 11.9026 14.2266 12.0565 14.4775 12.3073C14.7263 12.5577 14.8817 12.9035 14.8817 13.2849C14.8817 13.6662 14.7263 14.0131 14.4775 14.2624C14.3221 14.4178 14.1322 14.5361 13.9189 14.6037V19.9961H14.7969V17.1519C14.7969 16.9203 14.9838 16.7314 15.2159 16.7314H16.1873V15.8143C15.9762 15.7476 15.7845 15.6304 15.6287 15.473C15.3784 15.2227 15.223 14.8769 15.223 14.4955C15.223 14.1141 15.3784 13.7688 15.6287 13.518C15.8775 13.2676 16.2249 13.1122 16.6062 13.1122C16.9876 13.1122 17.3334 13.2676 17.5838 13.518C17.8341 13.7683 17.9885 14.1141 17.9885 14.4955C17.9885 14.8769 17.8346 15.2222 17.5838 15.473C17.4299 15.6284 17.2385 15.7468 17.0252 15.8143V17.1514C17.0252 17.3829 16.8383 17.5703 16.6062 17.5703H15.6348V19.9956H17.2684C17.4599 19.4802 17.7478 18.9983 18.1338 18.5463C19.6425 16.7802 21.1334 15.6229 21.1334 12.4069ZM10.7766 14.1111C10.7263 14.0602 10.6665 14.0199 10.6005 13.9924C10.5345 13.9649 10.4636 13.9509 10.3921 13.9511C10.2408 13.9511 10.1057 14.0116 10.0077 14.1111C9.9082 14.2091 9.84777 14.3457 9.84777 14.4955C9.84777 14.6453 9.9082 14.7819 10.0077 14.8799C10.1057 14.9795 10.2408 15.0399 10.3921 15.0399C10.542 15.0399 10.6786 14.9795 10.7766 14.8799C10.8761 14.7819 10.9365 14.6453 10.9365 14.4955C10.9365 14.3457 10.8761 14.2091 10.7766 14.1111ZM16.9907 14.8799C17.0902 14.7819 17.1506 14.6453 17.1506 14.4955C17.1506 14.3457 17.0902 14.2091 16.9907 14.1111C16.9404 14.0602 16.8806 14.0199 16.8146 13.9924C16.7486 13.9649 16.6777 13.9509 16.6062 13.9511C16.4549 13.9511 16.3198 14.0116 16.2203 14.1111C16.1223 14.2091 16.0619 14.3457 16.0619 14.4955C16.0619 14.6453 16.1223 14.7819 16.2203 14.8799C16.2708 14.9308 16.331 14.9712 16.3972 14.9986C16.4635 15.0261 16.5345 15.0401 16.6062 15.0399C16.7561 15.0399 16.8932 14.9795 16.9907 14.8799ZM12.9718 26H14.0271C15.3773 26 16.522 25.0804 16.8688 23.8367H10.1306C10.4759 25.0798 11.6216 26 12.9718 26ZM10.024 21.6902V22.9988H16.9749V21.6902C16.9749 21.3952 16.9978 21.1103 17.044 20.835H9.95492C10.0006 21.1098 10.024 21.3952 10.024 21.6902Z" fill="black"/>
</svg>
