<svg width="23" height="26" viewBox="0 0 23 26" fill="none" xmlns="http://www.w3.org/2000/svg">
<path d="M22.5069 22.0914L19.1036 16.2422C19.6925 16.0625 20.3199 15.9039 20.5806 15.4538C21.015 14.7038 20.2417 13.4735 20.4447 12.6696C20.6539 11.8423 21.8887 11.1264 21.8887 10.2854C21.8887 9.46607 20.6121 8.50888 20.4028 7.68638C20.1983 6.88265 20.9693 5.65102 20.5335 4.90195C20.0976 4.1528 18.6459 4.21435 18.0484 3.63933C17.4335 3.04757 17.4354 1.59974 16.6938 1.20318C15.9491 0.80514 14.7389 1.60958 13.9121 1.41902C13.0948 1.23065 12.3645 0 11.5108 0C10.6444 0 9.26629 1.39598 9.05017 1.44622C8.22381 1.63831 7.01206 0.835845 6.26819 1.23557C5.52727 1.63347 5.53183 3.08144 4.91809 3.67418C4.32149 4.25026 2.86972 4.19138 2.43522 4.94136C2.00078 5.69121 2.77409 6.92122 2.5711 7.72552C2.36755 8.53186 1.08976 9.34887 1.08976 10.2814C1.08976 11.1224 2.32764 11.8361 2.53808 12.663C2.74262 13.4668 1.97162 14.6982 2.40746 15.4476C2.64474 15.8555 3.18309 16.0229 3.72074 16.1839C3.78349 16.2026 3.90216 16.2728 3.82178 16.39L0.493437 22.1343C0.257917 22.5407 0.449172 22.889 0.918316 22.9088L3.21471 23.0046C3.68385 23.0243 4.27237 23.3652 4.52279 23.7624L5.74817 25.7069C5.99859 26.1041 6.39592 26.0966 6.63137 25.6903C6.63137 25.6903 10.06 19.7709 10.0614 19.7692C10.1302 19.6889 10.1993 19.7054 10.2324 19.7335C10.6075 20.0529 11.1305 20.3715 11.567 20.3715C11.995 20.3715 12.3914 20.0716 12.7834 19.7371C12.8153 19.7099 12.893 19.6542 12.9497 19.7698C12.9507 19.7716 16.3755 25.6586 16.3755 25.6586C16.6116 26.0644 17.009 26.0713 17.2586 25.6736L18.4805 23.7269C18.7303 23.3294 19.3181 22.9871 19.7873 22.9667L22.0835 22.8666C22.5524 22.846 22.743 22.4972 22.5069 22.0914ZM15.3059 16.7669C12.7669 18.244 9.71921 18.0857 7.3914 16.6174C3.9805 14.4326 2.8582 9.91301 4.90867 6.37395C6.98255 2.79407 11.5414 1.53088 15.1535 3.49817C15.1725 3.5085 15.1913 3.51918 15.2101 3.52972C15.2369 3.54454 15.2636 3.55958 15.2902 3.57475C16.4046 4.21724 17.3709 5.14969 18.0628 6.33903C20.1776 9.97414 18.9409 14.6521 15.3059 16.7669Z" fill="black"/>
<path d="M14.7256 4.64401C14.7151 4.6379 14.7044 4.63221 14.6939 4.62616C12.7643 3.50941 10.305 3.42776 8.24383 4.62694C5.18515 6.40641 4.14435 10.3425 5.92383 13.4011C6.46682 14.3344 7.2109 15.0795 8.06937 15.6142C8.14257 15.6608 8.21669 15.7059 8.29168 15.7496C11.3537 17.5235 15.2876 16.4756 17.0614 13.4138C18.8352 10.3518 17.7876 6.41793 14.7256 4.64401ZM15.4916 9.64959L14.4195 10.6946C14.0874 11.0182 13.8799 11.6571 13.9584 12.1141L14.2114 13.5897C14.2899 14.0468 14.0182 14.2441 13.6078 14.0284L12.2825 13.3316C11.8721 13.1159 11.2004 13.1159 10.7899 13.3316L9.46478 14.0284C9.05431 14.2441 8.7826 14.0468 8.86102 13.5897L9.1141 12.1141C9.19252 11.6571 8.98496 11.0182 8.6529 10.6946L7.58083 9.64959C7.2487 9.32596 7.35255 9.00655 7.81143 8.9398L9.29299 8.72452C9.75188 8.65784 10.2953 8.26303 10.5005 7.84722L11.1631 6.50471C11.3683 6.08889 11.7042 6.08889 11.9094 6.50471L12.572 7.84722C12.7772 8.26303 13.3206 8.65784 13.7795 8.72452L15.2611 8.9398C15.7199 9.00655 15.8237 9.32596 15.4916 9.64959Z" fill="black"/>
</svg>
