<svg width="21" height="20" viewBox="0 0 21 20" fill="none" xmlns="http://www.w3.org/2000/svg">
<path fill-rule="evenodd" clip-rule="evenodd" d="M19.2984 7.70285L18.8195 7.22402C18.5151 6.91939 18.344 6.50636 18.3439 6.07569V5.40294C18.3439 4.54098 18.0015 3.71433 17.392 3.10484C16.7825 2.49535 15.9559 2.15294 15.0939 2.15294H14.4212C13.9905 2.15285 13.5775 1.98179 13.2729 1.67735L12.794 1.19852C12.1846 0.589902 11.3586 0.248047 10.4974 0.248047C9.6361 0.248047 8.81006 0.589902 8.20069 1.19852L7.72185 1.67735C7.41722 1.98179 7.0042 2.15285 6.57352 2.15294H5.90294C5.04098 2.15294 4.21433 2.49535 3.60484 3.10484C2.99535 3.71433 2.65294 4.54098 2.65294 5.40294V6.07569C2.65285 6.50636 2.48179 6.91939 2.17735 7.22402L1.69852 7.70285C1.0899 8.31223 0.748047 9.13827 0.748047 9.99952C0.748047 10.8608 1.0899 11.6868 1.69852 12.2962L2.17735 12.775C2.48179 13.0797 2.65285 13.4927 2.65294 13.9234V14.5961C2.65294 15.4581 2.99535 16.2847 3.60484 16.8942C4.21433 17.5037 5.04098 17.8461 5.90294 17.8461H6.57569C7.00636 17.8462 7.41939 18.0173 7.72402 18.3217L8.20285 18.8005C8.81223 19.4091 9.63827 19.751 10.4995 19.751C11.3608 19.751 12.1868 19.4091 12.7962 18.8005L13.275 18.3217C13.5797 18.0173 13.9927 17.8462 14.4234 17.8461H15.0961C15.9581 17.8461 16.7847 17.5037 17.3942 16.8942C18.0037 16.2847 18.3461 15.4581 18.3461 14.5961V13.9234C18.3462 13.4927 18.5173 13.0797 18.8217 12.775L19.3005 12.2962C19.9089 11.6865 20.2503 10.8603 20.2499 9.99907C20.2495 9.13782 19.9073 8.31194 19.2984 7.70285ZM14.3237 8.40702L9.99035 12.7404C9.91506 12.816 9.82559 12.8759 9.72706 12.9169C9.62852 12.9578 9.52288 12.9789 9.41619 12.9789C9.30949 12.9789 9.20385 12.9578 9.10532 12.9169C9.00679 12.8759 8.91731 12.816 8.84202 12.7404L6.67535 10.5737C6.53183 10.4197 6.4537 10.2159 6.45741 10.0055C6.46113 9.79496 6.5464 9.59413 6.69526 9.44526C6.84413 9.2964 7.04496 9.21113 7.25546 9.20741C7.46595 9.2037 7.66966 9.28183 7.82369 9.42535L9.41619 11.0168L13.1754 7.25869C13.3294 7.11517 13.5331 7.03703 13.7436 7.04075C13.9541 7.04446 14.1549 7.12973 14.3038 7.2786C14.4526 7.42746 14.5379 7.6283 14.5416 7.83879C14.5453 8.04928 14.4672 8.253 14.3237 8.40702Z" fill="black"/>
</svg>
