<svg width="26" height="26" viewBox="0 0 26 26" fill="none" xmlns="http://www.w3.org/2000/svg">
<path d="M19.5 6.09375C19.5 5.31375 19.37 4.56625 19.1263 3.8675C20.7919 4.75313 21.9375 6.51625 21.9375 8.53125C21.9375 11.44 19.565 13.8125 16.6562 13.8125C15.5675 13.8125 14.5438 13.4794 13.7069 12.9106C14.5113 12.7806 15.275 12.5125 15.9575 12.1225C17.0086 11.5348 17.8883 10.6831 18.5095 9.65145C19.1308 8.61981 19.4722 7.44394 19.5 6.24V6.09375ZM12.2038 11.3587C12.3338 11.3669 12.4637 11.375 12.5938 11.375C13.1219 11.375 13.6338 11.2937 14.1131 11.1556C16.2825 10.4975 17.875 8.47438 17.875 6.09375C17.875 5.73625 17.8425 5.395 17.7694 5.05375C17.6394 4.40375 17.3956 3.8025 17.0462 3.26625C16.5706 2.51552 15.9132 1.89701 15.1348 1.46807C14.3565 1.03913 13.4825 0.813636 12.5938 0.8125C9.685 0.8125 7.3125 3.185 7.3125 6.09375C7.3125 8.8725 9.47375 11.1556 12.2038 11.3587ZM5.56562 13.9181C5.34625 13.845 5.11062 13.8125 4.875 13.8125H3.25C1.90938 13.8125 0.8125 14.9094 0.8125 16.25V22.7337C0.8125 24.0744 1.90938 25.1712 3.25 25.1712H4.875C5.1025 25.1712 5.33 25.1388 5.54125 25.0737C5.07894 24.6922 4.70665 24.2132 4.45101 23.6711C4.19538 23.1289 4.06271 22.5369 4.0625 21.9375V17.0625C4.0625 15.795 4.6475 14.6575 5.56562 13.9181ZM24.5245 15.5732C24.4254 15.4323 24.31 15.3036 24.1808 15.1897C24.0139 15.0442 23.8277 14.9226 23.6275 14.8281C23.27 14.6656 22.88 14.6087 22.4949 14.6453C22.36 14.6583 22.2292 14.6965 22.0976 14.7314C21.8522 14.7964 21.6125 14.8858 21.3931 15.0231L18.2309 17.1056L17.0625 17.875L15.444 18.954C14.9101 19.31 14.2828 19.5 13.6411 19.5H11.375C10.9281 19.5 10.5625 19.1344 10.5625 18.6875C10.5625 18.2406 10.9281 17.875 11.375 17.875H13.8125C14.7063 17.875 15.4375 17.1437 15.4375 16.25C15.4357 15.8268 15.2693 15.4209 14.9734 15.1183C14.6775 14.8157 14.2754 14.6403 13.8523 14.6291C13.8385 14.6291 13.8263 14.625 13.8125 14.625H8.125C8.1055 14.625 8.08763 14.6315 8.06813 14.6323C7.89927 14.6366 7.7313 14.6581 7.56681 14.6965C7.49287 14.7136 7.42381 14.7396 7.35313 14.7631C7.25221 14.7962 7.15367 14.8361 7.05819 14.8826C7.01756 14.9021 6.97044 14.9118 6.93144 14.9337C6.87944 14.9638 6.83069 14.9996 6.78112 15.0329L6.75025 15.0532C6.62837 15.1377 6.513 15.2303 6.409 15.3351L6.38381 15.3636C6.27047 15.4809 6.16896 15.609 6.08075 15.7462C6.00551 15.8608 5.94001 15.9815 5.88494 16.107L5.8695 16.1493C5.82197 16.2682 5.78393 16.3907 5.75575 16.5157C5.74762 16.5522 5.7395 16.5888 5.733 16.6254C5.70517 16.7692 5.69049 16.9152 5.68913 17.0617V21.9416C5.69027 22.1241 5.71236 22.306 5.75494 22.4835C5.78581 22.62 5.82481 22.7533 5.87844 22.88L5.88088 22.8881C5.94918 23.0462 6.03416 23.1966 6.13438 23.3366C6.21319 23.4487 6.2985 23.5544 6.39437 23.6511L6.40575 23.6632C6.50406 23.7607 6.61212 23.8477 6.72587 23.9273C6.75837 23.9501 6.79169 23.9704 6.825 23.9915C6.85831 24.0126 6.89 24.037 6.92413 24.0565C6.95013 24.0711 6.981 24.0768 7.00781 24.0906C7.1305 24.1548 7.25887 24.2068 7.39294 24.2499C7.44575 24.2661 7.49531 24.2856 7.54894 24.2986C7.735 24.3441 7.92675 24.375 8.12744 24.375H16.4653C16.718 24.375 16.9642 24.3287 17.2014 24.2539C17.5113 24.1559 17.7993 23.9989 18.0497 23.7916L22.5396 19.9558L24.3783 18.3861L24.5001 18.2561C24.7682 17.8986 24.9551 17.3379 24.9551 16.8911C24.9551 16.4011 24.7991 15.9486 24.5278 15.5724L24.5245 15.5732Z" fill="black"/>
</svg>
