<svg width="26" height="26" viewBox="0 0 26 26" fill="none" xmlns="http://www.w3.org/2000/svg">
<path d="M6.84615 23.5979H19.1538C20.1719 23.5979 21 22.7698 21 21.7517V8.74662H16.6923C15.6743 8.74662 14.8462 7.91848 14.8462 6.90047V2.59277H6.84615C5.82814 2.59277 5 3.42092 5 4.43893V21.7517C5 22.7698 5.82814 23.5979 6.84615 23.5979ZM9.30769 11.2492H16.6923C17.0325 11.2492 17.3077 11.5244 17.3077 11.8646C17.3077 12.2047 17.0325 12.48 16.6923 12.48H9.30769C8.96755 12.48 8.69231 12.2047 8.69231 11.8646C8.69231 11.5244 8.96755 11.2492 9.30769 11.2492ZM9.30769 13.7107H16.6923C17.0325 13.7107 17.3077 13.986 17.3077 14.3261C17.3077 14.6662 17.0325 14.9415 16.6923 14.9415H9.30769C8.96755 14.9415 8.69231 14.6662 8.69231 14.3261C8.69231 13.986 8.96755 13.7107 9.30769 13.7107ZM9.30769 16.1723H16.6923C17.0325 16.1723 17.3077 16.4475 17.3077 16.7876C17.3077 17.1278 17.0325 17.403 16.6923 17.403H9.30769C8.96755 17.403 8.69231 17.1278 8.69231 16.7876C8.69231 16.4475 8.96755 16.1723 9.30769 16.1723ZM9.30769 18.6338H14.2308C14.5709 18.6338 14.8462 18.909 14.8462 19.2492C14.8462 19.5893 14.5709 19.8646 14.2308 19.8646H9.30769C8.96755 19.8646 8.69231 19.5893 8.69231 19.2492C8.69231 18.909 8.96755 18.6338 9.30769 18.6338Z" fill="black"/>
<path d="M16.6925 7.51563H20.6397L16.0771 2.95312V6.90024C16.0771 7.23977 16.353 7.51563 16.6925 7.51563Z" fill="black"/>
</svg>
