<svg width="26" height="26" viewBox="0 0 26 26" fill="none" xmlns="http://www.w3.org/2000/svg">
<g clip-path="url(#clip0_9_58)">
<path d="M13.9236 14.5382C13.8413 14.704 13.7324 14.8552 13.6013 14.9858C12.9058 15.6815 11.7598 15.6522 11.1025 14.8977C10.3481 14.2404 10.3187 13.0944 11.0142 12.3988C11.1451 12.2678 11.2963 12.159 11.4621 12.0764C11.8193 11.8989 12.1554 11.6821 12.4541 11.4198L9.35645 8.32218L12.4541 5.22453C12.7165 5.52348 12.9334 5.8595 13.1109 6.21695C13.1933 6.38269 13.3022 6.5339 13.4332 6.66463C14.1289 7.36034 15.2751 7.33073 15.9324 6.57597C16.6872 5.91861 16.7168 4.77222 16.0211 4.07657C15.8903 3.94556 15.7391 3.83671 15.5734 3.75426C15.2161 3.57673 14.8801 3.35989 14.5811 3.09766L17.6788 0L20.7764 3.09766C21.0387 2.79871 21.2555 2.46269 21.433 2.10539C21.5155 1.93967 21.6244 1.78848 21.7554 1.65775C22.4511 0.962051 23.597 0.991606 24.2544 1.74581C25.0088 2.40317 25.0382 3.54915 24.3425 4.24475C24.2117 4.37575 24.0605 4.48464 23.8948 4.56716C23.5375 4.7447 23.2015 4.96148 22.9025 5.22377L26.0002 8.32142L22.9025 11.4191C22.6403 11.1201 22.4235 10.7841 22.2459 10.4268C22.1635 10.2611 22.0547 10.1099 21.9236 9.97913C21.2279 9.28342 20.0816 9.31303 19.4242 10.0678C18.6695 10.7252 18.6399 11.8713 19.3356 12.567C19.4663 12.698 19.6175 12.8069 19.7833 12.8893C20.1408 13.0668 20.4767 13.2839 20.7755 13.5461L17.6779 16.6438L14.5802 13.5461C14.3179 13.8448 14.1011 14.1809 13.9236 14.5381V14.5382Z" fill="black"/>
<path d="M3.09766 14.5801C2.79871 14.3179 2.46269 14.1011 2.10539 13.9235C1.93968 13.8411 1.78849 13.7322 1.65775 13.6012C0.962051 12.9058 0.991606 11.7598 1.74581 11.1022C2.40317 10.348 3.54915 10.3186 4.24475 11.0141C4.3757 11.145 4.48459 11.2962 4.56716 11.4618C4.7447 11.8193 4.96148 12.1553 5.22377 12.4541L8.32142 9.35645L10.1612 11.1963C10.0985 11.25 10.0379 11.3061 9.97953 11.3644C9.36041 11.9837 9.02241 12.8409 9.05237 13.7163C9.08111 14.5579 9.44927 15.3605 10.0664 15.9338C10.6397 16.5507 11.4422 16.9188 12.2839 16.9478C13.1593 16.9777 14.0164 16.6397 14.6357 16.0206C14.6941 15.9622 14.7501 15.9015 14.8038 15.8387L16.6438 17.6788L13.5461 20.7764C13.8448 21.0387 14.1809 21.2555 14.5381 21.433C14.704 21.5154 14.8552 21.6243 14.986 21.7553C15.6815 22.4508 15.6522 23.5968 14.8977 24.2541C14.2404 25.0085 13.0944 25.0379 12.399 24.3424C12.2678 24.2116 12.159 24.0603 12.0766 23.8945C11.8991 23.5373 11.6823 23.2012 11.42 22.9023L8.32234 26L5.22468 22.9023C5.52348 22.6401 5.85945 22.4233 6.21695 22.2457C6.38269 22.1633 6.5339 22.0544 6.66463 21.9234C7.36034 21.2277 7.33073 20.0815 6.57597 19.4242C5.91861 18.6694 4.77222 18.6399 4.07657 19.3355C3.94556 19.4663 3.83671 19.6175 3.75426 19.7832C3.57673 20.1405 3.35989 20.4765 3.09766 20.7755L0 17.6778L3.09766 14.5801Z" fill="black"/>
</g>
<defs>
<clipPath id="clip0_9_58">
<rect width="26" height="26" fill="white"/>
</clipPath>
</defs>
</svg>
