<svg width="27" height="26" viewBox="0 0 27 26" fill="none" xmlns="http://www.w3.org/2000/svg">
<path d="M20.1665 6.09375C20.1665 5.31375 20.0365 4.56625 19.7928 3.8675C21.4584 4.75313 22.604 6.51625 22.604 8.53125C22.604 11.44 20.2315 13.8125 17.3228 13.8125C16.234 13.8125 15.2103 13.4794 14.3734 12.9106C15.1778 12.7806 15.9415 12.5125 16.624 12.1225C17.6751 11.5348 18.5548 10.6831 19.1761 9.65145C19.7973 8.61981 20.1387 7.44394 20.1665 6.24V6.09375ZM12.8703 11.3587C13.0003 11.3669 13.1303 11.375 13.2603 11.375C13.7884 11.375 14.3003 11.2937 14.7796 11.1556C16.949 10.4975 18.5415 8.47438 18.5415 6.09375C18.5415 5.73625 18.509 5.395 18.4359 5.05375C18.3059 4.40375 18.0621 3.8025 17.7128 3.26625C17.2371 2.51552 16.5797 1.89701 15.8013 1.46807C15.023 1.03913 14.149 0.813636 13.2603 0.8125C10.3515 0.8125 7.979 3.185 7.979 6.09375C7.979 8.8725 10.1403 11.1556 12.8703 11.3587ZM6.23213 13.9181C6.01275 13.845 5.77713 13.8125 5.5415 13.8125H3.9165C2.57588 13.8125 1.479 14.9094 1.479 16.25V22.7337C1.479 24.0744 2.57588 25.1712 3.9165 25.1712H5.5415C5.769 25.1712 5.9965 25.1388 6.20775 25.0737C5.74544 24.6922 5.37315 24.2132 5.11752 23.6711C4.86188 23.1289 4.72921 22.5369 4.729 21.9375V17.0625C4.729 15.795 5.314 14.6575 6.23213 13.9181ZM25.191 15.5732C25.0919 15.4323 24.9765 15.3036 24.8473 15.1897C24.6804 15.0442 24.4942 14.9226 24.294 14.8281C23.9365 14.6656 23.5465 14.6087 23.1614 14.6453C23.0265 14.6583 22.8957 14.6965 22.7641 14.7314C22.5187 14.7964 22.279 14.8858 22.0596 15.0231L18.8974 17.1056L17.729 17.875L16.1105 18.954C15.5766 19.31 14.9493 19.5 14.3076 19.5H12.0415C11.5946 19.5 11.229 19.1344 11.229 18.6875C11.229 18.2406 11.5946 17.875 12.0415 17.875H14.479C15.3728 17.875 16.104 17.1437 16.104 16.25C16.1023 15.8268 15.9358 15.4209 15.6399 15.1183C15.344 14.8157 14.9419 14.6403 14.5188 14.6291C14.505 14.6291 14.4928 14.625 14.479 14.625H8.7915C8.772 14.625 8.75413 14.6315 8.73463 14.6323C8.56578 14.6366 8.3978 14.6581 8.23332 14.6965C8.15938 14.7136 8.09032 14.7396 8.01963 14.7631C7.91871 14.7962 7.82017 14.8361 7.72469 14.8826C7.68407 14.9021 7.63694 14.9118 7.59794 14.9337C7.54594 14.9638 7.49719 14.9996 7.44763 15.0329L7.41675 15.0532C7.29488 15.1377 7.1795 15.2303 7.0755 15.3351L7.05032 15.3636C6.93697 15.4809 6.83546 15.609 6.74725 15.7462C6.67201 15.8608 6.60651 15.9815 6.55144 16.107L6.536 16.1493C6.48847 16.2682 6.45044 16.3907 6.42225 16.5157C6.41413 16.5522 6.406 16.5888 6.3995 16.6254C6.37168 16.7692 6.35699 16.9152 6.35563 17.0617V21.9416C6.35678 22.1241 6.37886 22.306 6.42144 22.4835C6.45232 22.62 6.49132 22.7533 6.54494 22.88L6.54738 22.8881C6.61568 23.0462 6.70066 23.1966 6.80088 23.3366C6.87969 23.4487 6.965 23.5544 7.06088 23.6511L7.07225 23.6632C7.17057 23.7607 7.27863 23.8477 7.39238 23.9273C7.42488 23.9501 7.45819 23.9704 7.4915 23.9915C7.52482 24.0126 7.5565 24.037 7.59063 24.0565C7.61663 24.0711 7.6475 24.0768 7.67432 24.0906C7.797 24.1548 7.92538 24.2068 8.05944 24.2499C8.11225 24.2661 8.16182 24.2856 8.21544 24.2986C8.4015 24.3441 8.59325 24.375 8.79394 24.375H17.1318C17.3845 24.375 17.6307 24.3287 17.8679 24.2539C18.1778 24.1559 18.4658 23.9989 18.7162 23.7916L23.2061 19.9558L25.0448 18.3861L25.1666 18.2561C25.4348 17.8986 25.6216 17.3379 25.6216 16.8911C25.6216 16.4011 25.4656 15.9486 25.1943 15.5724L25.191 15.5732Z" fill="black"/>
</svg>
