<svg width="27" height="26" viewBox="0 0 27 26" fill="none" xmlns="http://www.w3.org/2000/svg">
<path d="M9.81217 18.4163C9.81504 16.3342 10.6435 14.3381 12.1158 12.8658C13.5881 11.3935 15.5842 10.565 17.6663 10.5622C18.4954 10.5605 19.319 10.6959 20.1038 10.963C20.6765 11.1385 21.223 11.3899 21.7288 11.7105V5.41634C21.726 4.91441 21.5253 4.43385 21.1704 4.07893C20.8155 3.724 20.3349 3.52335 19.833 3.52051H16.3122V7.58301C16.3093 8.08494 16.1087 8.5655 15.7538 8.92042C15.3988 9.27535 14.9183 9.476 14.4163 9.47884H10.083C9.58108 9.476 9.10052 9.27535 8.74559 8.92042C8.39067 8.5655 8.19002 8.08494 8.18717 7.58301V3.52051H4.66634C4.16441 3.52335 3.68385 3.724 3.32893 4.07893C2.974 4.43385 2.77335 4.91441 2.77051 5.41634V20.583C2.77335 21.0849 2.974 21.5655 3.32893 21.9204C3.68385 22.2753 4.16441 22.476 4.66634 22.4788H10.9605C10.6399 21.973 10.3885 21.4265 10.213 20.8538C9.94592 20.069 9.81048 19.2454 9.81217 18.4163Z" fill="black"/>
<path d="M10.0828 7.85384H14.4162C14.488 7.85384 14.5569 7.82531 14.6077 7.77452C14.6585 7.72373 14.687 7.65484 14.687 7.58301V3.52051H9.81201V7.58301C9.81201 7.65484 9.84055 7.72373 9.89134 7.77452C9.94213 7.82531 10.011 7.85384 10.0828 7.85384ZM17.6662 12.1872C16.4342 12.1872 15.2298 12.5525 14.2054 13.237C13.1811 13.9214 12.3826 14.8943 11.9112 16.0325C11.4397 17.1708 11.3164 18.4233 11.5567 19.6316C11.7971 20.8399 12.3903 21.9499 13.2615 22.821C14.1327 23.6922 15.2426 24.2855 16.4509 24.5258C17.6593 24.7662 18.9117 24.6428 20.05 24.1713C21.1882 23.6999 22.1611 22.9015 22.8455 21.8771C23.53 20.8527 23.8953 19.6484 23.8953 18.4163C23.8968 17.5979 23.7366 16.7873 23.4241 16.0309C23.1115 15.2745 22.6528 14.5872 22.074 14.0085C21.4953 13.4298 20.8081 12.971 20.0517 12.6584C19.2953 12.3459 18.4846 12.1857 17.6662 12.1872ZM19.8328 17.9072L17.6662 20.0738C17.5138 20.226 17.3073 20.3115 17.092 20.3115C16.8767 20.3115 16.6702 20.226 16.5178 20.0738L15.4345 18.9905C15.291 18.8365 15.2129 18.6328 15.2166 18.4223C15.2203 18.2118 15.3056 18.0109 15.4544 17.8621C15.6033 17.7132 15.8041 17.6279 16.0146 17.6242C16.2251 17.6205 16.4288 17.6987 16.5828 17.8422L17.092 18.3513L18.7495 16.7588C18.8165 16.6556 18.906 16.5689 19.0114 16.5052C19.1168 16.4416 19.2352 16.4028 19.3578 16.3917C19.4804 16.3806 19.6039 16.3974 19.719 16.441C19.8341 16.4846 19.9378 16.5538 20.0223 16.6433C20.1067 16.7328 20.1697 16.8404 20.2066 16.9578C20.2434 17.0753 20.253 17.1996 20.2348 17.3213C20.2165 17.443 20.1709 17.559 20.1013 17.6605C20.0316 17.762 19.9398 17.8463 19.8328 17.9072Z" fill="black"/>
</svg>
