<svg width="17" height="16" viewBox="0 0 17 16" fill="none" xmlns="http://www.w3.org/2000/svg">
<g clip-path="url(#clip0_9_7)">
<path d="M16.1375 14.8619L11.5876 10.3119C12.4689 9.22325 12.9995 7.83992 12.9995 6.33328C12.9995 2.84132 10.1582 0 6.66626 0C3.17429 0 0.333008 2.84128 0.333008 6.33325C0.333008 9.82522 3.17432 12.6665 6.66629 12.6665C8.17293 12.6665 9.55626 12.1359 10.6449 11.2545L15.1949 15.8045C15.3249 15.9345 15.4955 15.9998 15.6662 15.9998C15.8369 15.9998 16.0075 15.9345 16.1375 15.8045C16.3982 15.5438 16.3982 15.1225 16.1375 14.8619ZM6.66629 11.3332C3.90897 11.3332 1.66634 9.09057 1.66634 6.33325C1.66634 3.57593 3.90897 1.3333 6.66629 1.3333C9.42361 1.3333 11.6662 3.57593 11.6662 6.33325C11.6662 9.09057 9.42358 11.3332 6.66629 11.3332Z" fill="#212121"/>
</g>
<defs>
<clipPath id="clip0_9_7">
<rect width="16" height="16" fill="white" transform="translate(0.333008)"/>
</clipPath>
</defs>
</svg>
